:SAMPLES-PER-SECOND 30
:FULLY-SPECIFIED
:DEGREES
61
root  35.0632645 36.53110294 -14.72205064 10.52206135 3.669161797 3.082027435
lowerback  -8.918229103 1.335239887 1.796499372
upperback  -4.176070213 1.274580002 -3.207060099
thorax  0.7844539881 0.4138279855 -4.216750145
lowerneck  -15.97799969 0.1105099991 0.9434030056
upperneck  12.81970024 -1.008970022 4.907929897
head  6.557590008 -0.07176605612 1.318050146
lclavicle  0 -4.497500157e-015 -2.743230041e-014
lhumerus  -42.9375 25.73819923 71.0719986
lradius  -0.07525173575 -6.507048965e-006 27.36669731
lwrist  4.824992743e-007 -3.790274832e-007 -30.49150085
lhand  -3.511775976e-031 -36.8227005 -10.74269962
lfingers  90 7.125020027 -90
lthumb  94.79417419 -25.58008575 100.9925766
rclavicle  0 -4.497500157e-015 -2.743230041e-014
rhumerus  7.485059261 0.7859944701 -67.85620117
rradius  -5.16745672e-007 2.214343908e-008 88.11730194
rwrist  1.380293725e-006 2.528095422e-007 -172.2230072
rhand  -2.995113685e-031 0.4461149871 -8.024479866
rfingers  -90 -7.125020027 -90
rthumb  -86.14343262 -7.845599651 -63.71784592
rfemur  -13.29082584 13.94170475 13.8134203
rtibia  -1.160536766 1.310399055 21.2420063
rfoot  -0.8812965751 -17.59714699 -41.03830719
rtoes  4.091099262 19.59426689 -102.0398254
lfemur  -11.29527378 -18.07182693 -18.1736145
ltibia  1.994593501 1.738166809 15.75148296
lfoot  0.4341243804 -29.15028 32.34923172
ltoes  -8.600494385 -18.12509727 -115.9277267
62
root  35.06207504 36.5294509 -14.72044517 10.53574181 3.839878798 3.088009357
lowerback  -8.987038612 1.354410172 1.936839819
upperback  -4.175149918 1.287729979 -3.257479906
thorax  0.8283249736 0.4183549881 -4.347430229
lowerneck  -15.90369987 0.03241369873 0.7818470001
upperneck  12.74530029 -1.088119984 5.008570194
head  6.524020195 -0.1118540391 1.368000031
lclavicle  0 -4.497500157e-015 -2.743230041e-014
lhumerus  -42.97700119 25.81270027 70.99030304
lradius  -0.07586004585 -6.507048965e-006 27.3567009
lwrist  4.824992743e-007 -3.790274832e-007 -30.60149956
lhand  -3.513342771e-031 -36.86009979 -10.71850014
lfingers  90 7.125020027 -90
lthumb  94.80658722 -25.55498505 101.0303116
rclavicle  0 -4.497500157e-015 -2.743230041e-014
rhumerus  8.929598808 0.9880369306 -67.17810059
rradius  -5.16745672e-007 2.214343908e-008 88.26670074
rwrist  1.380293725e-006 2.528095422e-007 -172.0970001
rhand  -2.986042784e-031 0.5684530139 -8.159930229
rfingers  -90 -7.125020027 -90
rthumb  -86.18038177 -7.73182869 -63.60709
rfemur  -13.29498863 13.88714981 13.84699154
rtibia  -1.17905128 1.356619477 21.27627754
rfoot  -0.9097960591 -17.51371574 -41.12657928
rtoes  4.098838806 19.59233856 -102.0629044
lfemur  -11.29141998 -18.17123413 -18.15936089
ltibia  2.032970667 1.773666382 15.70829391
lfoot  0.4551561177 -29.18918228 32.34543991
ltoes  -8.551522255 -18.14764404 -115.770401
63
root  35.06142023 36.52882313 -14.71910101 10.58125019 3.996086597 3.125430346
lowerback  -8.908411026 1.423349977 1.993950367
upperback  -4.223110199 1.372879982 -3.27602005
thorax  0.7447260022 0.457156986 -4.392089844
lowerneck  -15.81550026 -0.09833270311 0.6468279958
upperneck  12.69299984 -1.233229995 5.040249825
head  6.496329784 -0.1877530068 1.38488996
lclavicle  0 -4.497500157e-015 -2.743230041e-014
lhumerus  -43.03369904 25.65139961 71.05989838
lradius  -0.07646719366 -6.507048965e-006 27.36829948
lwrist  4.824992743e-007 -3.790274832e-007 -30.57439995
lhand  -3.510720762e-031 -36.85240173 -10.75119972
lfingers  90 7.125020027 -90
lthumb  94.80989075 -25.5873127 101.0250626
rclavicle  0 -4.497500157e-015 -2.743230041e-014
rhumerus  10.29950142 0.9457947612 -66.40249634
rradius  -5.16745672e-007 2.214343908e-008 88.27290344
rwrist  1.380293725e-006 2.528095422e-007 -172.5789948
rhand  -2.990934596e-031 0.780978024 -8.086440086
rfingers  -90 -7.125020027 -90
rthumb  -86.10597229 -7.810948849 -63.39585495
rfemur  -13.36585236 13.87945271 13.84048748
rtibia  -1.221384645 1.391659975 21.37488937
rfoot  -0.9624920487 -17.42744255 -41.2242775
rtoes  4.113641739 19.58935165 -102.107048
lfemur  -11.31814575 -18.32644272 -18.18622398
ltibia  2.079670668 1.757923841 15.65593052
lfoot  0.4514971673 -29.10871124 32.33065414
ltoes  -8.578738213 -18.13513374 -115.857811
64
root  35.06100572 36.52848672 -14.71830804 10.61718941 4.15749836 3.148075819
lowerback  -8.877450943 1.513079882 1.966910481
upperback  -4.222789764 1.494079947 -3.375210047
thorax  0.7407960296 0.5162910223 -4.469150066
lowerneck  -15.89140034 -0.2287160009 0.7780719995
upperneck  12.69999981 -1.450979948 5.064960003
head  6.516699791 -0.2852540016 1.349339962
lclavicle  0 -4.497500157e-015 -2.743230041e-014
lhumerus  -42.92409897 25.45499992 71.02680206
lradius  -0.07707352191 -6.507048965e-006 27.32210159
lwrist  4.824992743e-007 -3.790274832e-007 -30.7493
lhand  -3.505795077e-031 -36.85160065 -10.81070042
lfingers  90 7.125020027 -90
lthumb  94.8221283 -25.64578056 101.0296326
rclavicle  0 -4.497500157e-015 -2.743230041e-014
rhumerus  11.80189991 0.7791853547 -65.77999878
rradius  -5.16745672e-007 2.214343908e-008 88.09369659
rwrist  1.380293725e-006 2.528095422e-007 -172.6640015
rhand  -2.997641028e-031 0.8987749815 -7.985960007
rfingers  -90 -7.125020027 -90
rthumb  -86.03725433 -7.908136368 -63.27498245
rfemur  -13.41923523 13.83030128 13.85481358
rtibia  -1.256009579 1.434707522 21.45496941
rfoot  -0.9901225567 -17.33330154 -41.26481628
rtoes  4.143878937 19.58321762 -102.1972504
lfemur  -11.33447742 -18.39347649 -18.19789505
ltibia  2.121368408 1.786470175 15.60631275
lfoot  0.4484477341 -29.13195038 32.25890732
ltoes  -8.616026878 -18.11791229 -115.9776611
65
root  35.06061224 36.5283876 -14.71734235 10.6647234 4.302325726 3.164438486
lowerback  -8.813750267 1.562109828 1.989600062
upperback  -4.234869957 1.55716002 -3.446290016
thorax  0.7014150023 0.5454400182 -4.551390171
lowerneck  -15.91559982 -0.3162440062 0.8404610157
upperneck  12.68719959 -1.587380052 5.073209763
head  6.519849777 -0.3482770026 1.327790022
lclavicle  0 -4.497500157e-015 -2.743230041e-014
lhumerus  -42.88209915 25.47260094 70.90859985
lradius  -0.07767932862 -6.507048965e-006 27.2154026
lwrist  4.824992743e-007 -3.790274832e-007 -30.92919922
lhand  -3.505069867e-031 -36.85820007 -10.81849957
lfingers  90 7.125020027 -90
lthumb  94.82693481 -25.6531868 101.0375061
rclavicle  0 -4.497500157e-015 -2.743230041e-014
rhumerus  13.39139938 0.6390525699 -65.33409882
rradius  -5.16745672e-007 2.214343908e-008 87.82420349
rwrist  1.380293725e-006 2.528095422e-007 -172.5099945
rhand  -2.995263329e-031 0.784792006 -8.021730423
rfingers  -90 -7.125020027 -90
rthumb  -86.07594299 -7.86908102 -63.38810349
rfemur  -13.4689436 13.75367832 13.87454414
rtibia  -1.287421465 1.471784234 21.50007629
rfoot  -1.004381418 -17.23249054 -41.29630661
rtoes  4.168925285 19.57810211 -102.2719879
lfemur  -11.39420414 -18.4310894 -18.18372917
ltibia  2.146110773 1.808397532 15.60270596
lfoot  0.4501110613 -29.1531868 32.16941071
ltoes  -8.610946655 -18.12026405 -115.9613266
66
root  35.06000248 36.52848371 -14.71627303 10.69232464 4.448172569 3.165159225
lowerback  -8.745840073 1.583539963 1.9847399
upperback  -4.258419991 1.584730029 -3.481829882
thorax  0.6430050135 0.556886971 -4.58438015
lowerneck  -15.92010021 -0.3936510086 0.7938110232
upperneck  12.63619995 -1.687090158 5.121439934
head  6.50744009 -0.3958229423 1.340489984
lclavicle  0 -4.497500157e-015 -2.743230041e-014
lhumerus  -42.85839844 25.57869911 70.80490112
lradius  -0.07828494906 -6.507048965e-006 27.10799789
lwrist  4.824992743e-007 -3.790274832e-007 -30.9741993
lhand  -3.505874185e-031 -36.86589813 -10.80770016
lfingers  90 7.125020027 -90
lthumb  94.82822418 -25.64226151 101.0446777
rclavicle  0 -4.497500157e-015 -2.743230041e-014
rhumerus  14.97849941 0.6016159058 -64.72190094
rradius  -5.16745672e-007 2.214343908e-008 87.51460266
rwrist  1.380293725e-006 2.528095422e-007 -172.6139984
rhand  -2.98352908e-031 0.9658859968 -8.196749687
rfingers  -90 -7.125020027 -90
rthumb  -86.1198349 -7.72416687 -63.22275543
rfemur  -13.46313 13.6883297 13.90475655
rtibia  -1.299124002 1.490706444 21.48342514
rfoot  -0.9996599555 -17.17313766 -41.34126282
rtoes  4.16977644 19.57563972 -102.2745285
lfemur  -11.5070982 -18.56306648 -18.13251495
ltibia  2.10694766 1.780012727 15.71464443
lfoot  0.4320590794 -29.13208961 32.08197021
ltoes  -8.602015495 -18.12439537 -115.9326172
67
root  35.05894218 36.52872101 -14.71500397 10.7209053 4.593971729 3.186908722
lowerback  -8.755558968 1.632660151 2.048779726
upperback  -4.320789814 1.636719942 -3.540529966
thorax  0.5918499827 0.5761759877 -4.677919865
lowerneck  -15.69699955 -0.4772639871 0.7651150227
upperneck  12.54459953 -1.793200016 5.166269779
head  6.443600178 -0.4511910081 1.348019958
lclavicle  0 -4.497500157e-015 -2.743230041e-014
lhumerus  -42.99259949 25.61020088 70.65660095
lradius  -0.07888103276 -6.507048965e-006 27.09449959
lwrist  4.824992743e-007 -3.790274832e-007 -31.01160049
lhand  -3.501885194e-031 -36.87279892 -10.85480022
lfingers  90 7.125020027 -90
lthumb  94.84152222 -25.68831825 101.0564346
rclavicle  0 -4.497500157e-015 -2.743230041e-014
rhumerus  16.27619934 0.6286241412 -64.12619781
rradius  -5.16745672e-007 2.214343908e-008 87.31739807
rwrist  1.380293725e-006 2.528095422e-007 -172.6080017
rhand  -2.990227347e-031 1.152750015 -8.096119881
rfingers  -90 -7.125020027 -90
rthumb  -86.03717804 -7.825939655 -63.034832
rfemur  -13.48258686 13.60731125 13.91405773
rtibia  -1.328976035 1.475790739 21.51049042
rfoot  -1.042705417 -17.17903328 -41.43781281
rtoes  4.170024872 19.57341194 -102.2752686
lfemur  -11.59432602 -18.71425819 -18.10974121
ltibia  2.103363276 1.760509014 15.77598476
lfoot  0.4434490204 -29.10384941 32.06182861
ltoes  -8.56966877 -18.13930893 -115.8286743
